#!OML:ASF C:\Vicon Data\Big\jianyuan-13\jianyuan\Session 1\Capture.male.ASF
:FULLY-SPECIFIED
:DEGREES
70
root -8.888171 17.595655 -17.625657 -0.543246 9.724221 4.984335
lowerback -4.531371 2.877860 -3.260487 
upperback 4.462940 4.048777 -1.189011 
thorax 7.065890 1.796870 0.993647 
lowerneck -0.134060 -3.055217 3.903579 
upperneck 12.431626 -4.553525 -3.072233 
head 3.923900 -2.449167 -1.876636 
rclavicle 0.000000 0.000000 
rhumerus -21.310442 -2.917948 -87.028596 
rradius 49.816427 
rwrist 17.594769 
rhand -19.279172 -18.556985 
rfingers 0.000000 
rthumb 7.035668 -48.420016 
lclavicle 0.000000 0.000000 
lhumerus -41.725262 31.368282 68.131924 
lradius 26.787234 
lwrist -55.586741 
lhand -18.928051 0.496213 
lfingers 0.000000 
lthumb 7.374586 30.347715 
rfemur -8.068464 6.857946 20.806168 
rtibia 26.120342 
rfoot -16.446692 -4.975851 
rtoes -24.419939 
lfemur -73.533808 5.644815 -22.417084 
ltibia 103.131622 
lfoot -12.853692 -9.746454 
ltoes -38.111343 
71
root -8.884439 17.597927 -17.508309 -0.804988 9.686955 5.046257
lowerback -4.606635 2.843342 -3.289237 
upperback 4.490636 4.008622 -1.207898 
thorax 7.140130 1.773375 0.990698 
lowerneck -0.204615 -3.000908 3.795752 
upperneck 12.561848 -4.486447 -3.080972 
head 3.988640 -2.424154 -1.865004 
rclavicle 0.000000 0.000000 
rhumerus -21.138612 -2.723771 -87.123394 
rradius 49.806037 
rwrist 17.535871 
rhand -19.304549 -18.543385 
rfingers 0.000000 
rthumb 7.011156 -48.407312 
lclavicle 0.000000 0.000000 
lhumerus -42.019075 31.974784 67.445811 
lradius 26.558625 
lwrist -56.222283 
lhand -18.639303 0.374757 
lfingers 0.000000 
lthumb 7.653318 30.216211 
rfemur -7.095395 6.859596 20.871774 
rtibia 25.710258 
rfoot -16.715932 -4.848922 
rtoes -24.252891 
lfemur -73.723361 5.363376 -22.491559 
ltibia 101.774380 
lfoot -12.810927 -9.888580 
ltoes -38.043430 
72
root -8.881162 17.596714 -17.391805 -1.008673 9.635943 5.088224
lowerback -4.711974 2.883753 -3.315003 
upperback 4.464164 4.073304 -1.270638 
thorax 7.173666 1.805025 0.951198 
lowerneck -0.203102 -3.009218 3.883373 
upperneck 12.673139 -4.511979 -3.076413 
head 4.026001 -2.436088 -1.883222 
rclavicle 0.000000 0.000000 
rhumerus -21.187144 -2.663072 -87.246791 
rradius 49.914217 
rwrist 17.433523 
rhand -19.278900 -18.600885 
rfingers 0.000000 
rthumb 7.035975 -48.463940 
lclavicle 0.000000 0.000000 
lhumerus -42.146849 32.260434 66.898274 
lradius 26.289761 
lwrist -56.587744 
lhand -19.143125 0.713465 
lfingers 0.000000 
lthumb 7.166998 30.572110 
rfemur -6.172246 6.947766 20.959064 
rtibia 25.282311 
rfoot -17.037626 -4.792349 
rtoes -24.186639 
lfemur -73.821082 5.088626 -22.537759 
ltibia 100.180607 
lfoot -12.778831 -10.068832 
ltoes -38.185459 
73
root -8.876976 17.590375 -17.272909 -1.217699 9.621905 5.020385
lowerback -4.849577 2.870042 -3.253918 
upperback 4.442266 4.058952 -1.261018 
thorax 7.233968 1.801194 0.933180 
lowerneck -0.217052 -2.976501 3.789790 
upperneck 12.781554 -4.482855 -2.997221 
head 4.072245 -2.425810 -1.843080 
rclavicle 0.000000 0.000000 
rhumerus -21.266353 -2.597837 -87.360152 
rradius 49.928528 
rwrist 17.395999 
rhand -19.214843 -18.546460 
rfingers 0.000000 
rthumb 7.097785 -48.407445 
lclavicle 0.000000 0.000000 
lhumerus -42.432249 32.891808 66.211092 
lradius 26.111868 
lwrist -57.195712 
lhand -19.227217 0.519270 
lfingers 0.000000 
lthumb 7.085813 30.380665 
rfemur -5.274924 6.972950 21.175691 
rtibia 24.891212 
rfoot -17.382020 -4.743539 
rtoes -24.177159 
lfemur -73.774189 4.823538 -22.447640 
ltibia 98.392716 
lfoot -12.514858 -10.286511 
ltoes -37.397692 
74
root -8.869568 17.586403 -17.156818 -1.380340 9.636983 4.985566
lowerback -5.005080 2.835001 -3.206148 
upperback 4.416325 4.017171 -1.222113 
thorax 7.298241 1.782961 0.951076 
lowerneck -0.272738 -2.949597 3.624202 
upperneck 12.918058 -4.450678 -3.010713 
head 4.136175 -2.421691 -1.823458 
rclavicle 0.000000 0.000000 
rhumerus -21.425306 -2.340994 -87.390817 
rradius 50.004162 
rwrist 17.221380 
rhand -19.135062 -18.567003 
rfingers 0.000000 
rthumb 7.174800 -48.425376 
lclavicle 0.000000 0.000000 
lhumerus -42.700452 33.472096 65.679332 
lradius 26.008738 
lwrist -57.739458 
lhand -19.162700 0.623697 
lfingers 0.000000 
lthumb 7.148099 30.482966 
rfemur -4.489177 6.869315 21.318002 
rtibia 24.591769 
rfoot -17.698775 -4.605265 
rtoes -24.037863 
lfemur -73.573232 4.498394 -22.477908 
ltibia 96.423759 
lfoot -12.500411 -10.187962 
ltoes -37.799105 
75
root -8.864851 17.577768 -17.038735 -1.386323 9.615184 5.007299
lowerback -5.302789 2.892741 -3.221858 
upperback 4.313362 4.117712 -1.288412 
thorax 7.361487 1.835407 0.915490 
lowerneck -0.288526 -2.985633 3.739630 
upperneck 13.060816 -4.520994 -2.976904 
head 4.187020 -2.453614 -1.839617 
rclavicle 0.000000 0.000000 
rhumerus -21.711474 -2.683738 -87.476529 
rradius 50.034869 
rwrist 17.398024 
rhand -18.961235 -18.433985 
rfingers 0.000000 
rthumb 7.342534 -48.286554 
lclavicle 0.000000 0.000000 
lhumerus -42.802566 33.634781 65.227751 
lradius 25.869282 
lwrist -57.965417 
lhand -19.193754 0.485245 
lfingers 0.000000 
lthumb 7.118119 30.345563 
rfemur -3.939367 6.845144 21.404488 
rtibia 24.421221 
rfoot -18.026845 -4.510508 
rtoes -23.897360 
lfemur -73.335031 4.229579 -22.527342 
ltibia 94.249796 
lfoot -12.335408 -10.203919 
ltoes -36.652757 
76
root -8.860946 17.565922 -16.920626 -1.502320 9.496979 5.018104
lowerback -5.470929 2.908383 -3.249444 
upperback 4.258927 4.153141 -1.342200 
thorax 7.401969 1.853198 0.886554 
lowerneck -0.396732 -2.935916 3.690669 
upperneck 13.177462 -4.478031 -2.825013 
head 4.256400 -2.429494 -1.785314 
rclavicle 0.000000 0.000000 
rhumerus -22.019205 -2.566612 -87.691495 
rradius 50.152567 
rwrist 17.133540 
rhand -18.917803 -18.454508 
rfingers 0.000000 
rthumb 7.384489 -48.305635 
lclavicle 0.000000 0.000000 
lhumerus -42.899732 33.822232 64.863765 
lradius 25.844647 
lwrist -58.035383 
lhand -19.263400 0.568925 
lfingers 0.000000 
lthumb 7.050916 30.431480 
rfemur -3.330779 6.780016 21.509297 
rtibia 24.331890 
rfoot -18.346972 -4.305463 
rtoes -23.801523 
lfemur -72.847530 4.155891 -22.635138 
ltibia 91.988867 
lfoot -12.500778 -9.930111 
ltoes -37.491168 
77
root -8.855587 17.550690 -16.804370 -1.544415 9.373529 4.950663
lowerback -5.737212 2.875286 -3.226087 
upperback 4.195371 4.121184 -1.264117 
thorax 7.485300 1.838902 0.965330 
lowerneck -0.434733 -2.870572 3.384981 
upperneck 13.241486 -4.385936 -2.790570 
head 4.296527 -2.398692 -1.719882 
rclavicle 0.000000 0.000000 
rhumerus -22.309502 -2.269880 -87.730163 
rradius 50.185777 
rwrist 17.012583 
rhand -18.971907 -18.529949 
rfingers 0.000000 
rthumb 7.332260 -48.382907 
lclavicle 0.000000 0.000000 
lhumerus -43.103680 34.108890 64.668465 
lradius 25.863449 
lwrist -57.870867 
lhand -19.403363 0.581210 
lfingers 0.000000 
lthumb 6.915802 30.448210 
rfemur -2.832205 6.716524 21.685463 
rtibia 24.247572 
rfoot -18.643085 -4.131455 
rtoes -23.909680 
lfemur -72.354636 4.073796 -22.538895 
ltibia 89.686254 
lfoot -12.362162 -9.927645 
ltoes -35.546356 
78
root -8.849373 17.539957 -16.688559 -1.585758 9.271615 4.872998
lowerback -5.996077 2.920450 -3.164664 
upperback 4.106022 4.193265 -1.280876 
thorax 7.542971 1.880074 0.934702 
lowerneck -0.488503 -2.885708 3.484707 
upperneck 13.324985 -4.414951 -2.815618 
head 4.334286 -2.411124 -1.751142 
rclavicle 0.000000 0.000000 
rhumerus -22.742250 -2.236820 -87.844763 
rradius 50.296140 
rwrist 16.746365 
rhand -18.887988 -18.477893 
rfingers 0.000000 
rthumb 7.413287 -48.327929 
lclavicle 0.000000 0.000000 
lhumerus -43.177090 34.015525 64.500182 
lradius 25.949408 
lwrist -57.783666 
lhand -19.329384 0.562433 
lfingers 0.000000 
lthumb 6.987185 30.427091 
rfemur -2.291929 6.673182 21.867852 
rtibia 24.078238 
rfoot -18.862816 -3.970059 
rtoes -23.717554 
lfemur -71.774525 3.991426 -22.531754 
ltibia 87.304954 
lfoot -12.483065 -9.464776 
ltoes -36.231402 
79
root -8.844253 17.527530 -16.572816 -1.613164 9.186188 4.756984
lowerback -6.246193 2.963761 -3.082388 
upperback 4.004438 4.260346 -1.307802 
thorax 7.585004 1.920515 0.880874 
lowerneck -0.590754 -2.883498 3.584278 
upperneck 13.432330 -4.429979 -2.769897 
head 4.392436 -2.412980 -1.760184 
rclavicle 0.000000 0.000000 
rhumerus -23.153922 -2.395445 -88.004903 
rradius 50.300536 
rwrist 16.784015 
rhand -18.975379 -18.391496 
rfingers 0.000000 
rthumb 7.328923 -48.244515 
lclavicle 0.000000 0.000000 
lhumerus -43.128995 33.714838 64.450893 
lradius 25.978523 
lwrist -57.402288 
lhand -19.424135 0.631393 
lfingers 0.000000 
lthumb 6.895699 30.499067 
rfemur -1.806570 6.739373 22.120921 
rtibia 23.965782 
rfoot -19.142985 -3.959336 
rtoes -23.558713 
lfemur -71.121287 3.844872 -22.383205 
ltibia 84.882686 
lfoot -12.559258 -9.318823 
ltoes -35.364365 
